<?xml version="1.0" encoding="utf-8" ?>
<svg baseProfile="full" height="360px" version="1.1" width="1100px" xmlns="http://www.w3.org/2000/svg" xmlns:ev="http://www.w3.org/2001/xml-events" xmlns:xlink="http://www.w3.org/1999/xlink"><defs><radialGradient id="glow" r="70%"><stop offset="0" stop-color="#FFD98A" stop-opacity="0.55" /><stop offset="1" stop-color="#FFD98A" stop-opacity="0.0" /></radialGradient><marker id="arrow" markerHeight="10" markerWidth="10" orient="auto" refX="10" refY="5"><path d="M 0 0 L 10 5 L 0 10 z" fill="#444" /></marker></defs><text font-family="Georgia" font-size="22px" font-weight="bold" text-anchor="middle" x="550.0" y="34">From Aura to Infinite Copies</text><circle cx="160" cy="190" fill="url(#glow)" r="155" /><circle cx="160" cy="190" fill="white" r="72" stroke="#333" stroke-width="2" /><text font-family="Georgia" font-size="14px" text-anchor="middle" x="160" y="186">Original artwork</text><text fill="#555" font-family="Georgia" font-size="12px" text-anchor="middle" x="160" y="206">hic et nunc</text><line marker-end="url(#arrow)" stroke="#444" stroke-width="2" x1="244" x2="398" y1="190" y2="190" /><circle cx="460" cy="190" fill="url(#glow)" r="105" /><circle cx="460" cy="190" fill="white" r="50" stroke="#333" stroke-width="2" /><text font-family="Georgia" font-size="14px" text-anchor="middle" x="460" y="186">Mechanical</text><text fill="#555" font-family="Georgia" font-size="12px" text-anchor="middle" x="460" y="206">reproduction</text><line marker-end="url(#arrow)" stroke="#444" stroke-width="2" x1="522" x2="650" y1="190" y2="190" /><circle cx="700" cy="190" fill="url(#glow)" r="80" /><circle cx="700" cy="190" fill="white" r="38" stroke="#333" stroke-width="2" /><text font-family="Georgia" font-size="14px" text-anchor="middle" x="700" y="186">Digital</text><text fill="#555" font-family="Georgia" font-size="12px" text-anchor="middle" x="700" y="206">reproduction</text><line marker-end="url(#arrow)" stroke="#444" stroke-width="2" x1="750" x2="862" y1="190" y2="190" /><circle cx="900" cy="190" fill="url(#glow)" r="60" /><circle cx="900" cy="190" fill="white" r="26" stroke="#333" stroke-width="2" /><text font-family="Georgia" font-size="14px" text-anchor="middle" x="900" y="186">Infinite</text><text fill="#555" font-family="Georgia" font-size="12px" text-anchor="middle" x="900" y="206">copies</text><line marker-end="url(#arrow)" stroke="#444" stroke-width="2" x1="938" x2="952" y1="190" y2="190" /><circle cx="980" cy="190" fill="url(#glow)" r="40" /><circle cx="980" cy="190" fill="white" r="16" stroke="#333" stroke-width="2" /><line marker-end="url(#arrow)" stroke="#444" stroke-width="2" x1="1008" x2="1003" y1="190" y2="190" /><circle cx="1025" cy="190" fill="url(#glow)" r="26" /><circle cx="1025" cy="190" fill="white" r="10" stroke="#333" stroke-width="2" /></svg>